<?xml version="1.0" encoding="iso-8859-1"?>
<!-- Uploaded to: SVG Repo, www.svgrepo.com, Generator: SVG Repo Mixer Tools -->
<svg height="800px" width="800px" version="1.1" id="Layer_1" xmlns="http://www.w3.org/2000/svg" xmlns:xlink="http://www.w3.org/1999/xlink" 
	 viewBox="0 0 512 512" xml:space="preserve">
<g>
	<path style="fill:#F78A68;" d="M422.01,236.602c-11.989-11.975-19.398-28.531-19.398-46.812V14.138h-79.216v38.371V84.9
		c0,36.957-29.294,67.877-66.237,68.499c-37.749,0.622-68.542-29.775-68.542-67.383V52.509V14.138h-79.23v175.653
		c0,36.561-29.648,66.209-66.209,66.209v241.862h425.644V256C450.541,256,433.986,248.592,422.01,236.602z M256,331.894
		c-22.48,0-40.704-18.224-40.704-40.704c0-22.48,18.224-40.704,40.704-40.704s40.704,18.224,40.704,40.704
		C296.704,313.67,278.48,331.894,256,331.894z"/>
	<circle style="fill:#F78A68;" cx="256" cy="291.19" r="40.704"/>
</g>
<path style="fill:#A65237;" d="M323.397,52.509V84.9c0,36.957-29.294,67.877-66.237,68.499
	c-37.749,0.622-68.542-29.775-68.542-67.383V52.509H323.397z"/>
<g>
	<path style="fill:#2E1C10;" d="M249.016,403.433c-7.818,0-14.138,6.334-14.138,14.138s6.32,14.138,14.138,14.138
		c7.804,0,14.138-6.334,14.138-14.138C263.154,409.767,256.82,403.433,249.016,403.433z"/>
	<path style="fill:#2E1C10;" d="M482.96,497.862V256c0-7.809-6.331-14.138-14.138-14.138c-13.913,0-26.986-5.416-36.82-15.262
		c-9.835-9.823-15.251-22.895-15.251-36.809V14.138C416.751,6.33,410.42,0,402.613,0h-79.216c-7.807,0-14.138,6.33-14.138,14.138
		v24.233H202.756V14.138C202.756,6.33,196.425,0,188.617,0h-79.23c-7.807,0-14.138,6.33-14.138,14.138v175.653
		c0,28.712-23.358,52.071-52.071,52.071c-7.807,0-14.138,6.33-14.138,14.138v241.862c0,7.809,6.331,14.138,14.138,14.138h425.644
		C476.63,512,482.96,505.67,482.96,497.862z M309.259,66.647V84.9c0,29.489-23.478,53.878-52.332,54.364
		c-14.377,0.222-28.004-5.19-38.262-15.282c-10.259-10.09-15.908-23.574-15.908-37.965V66.647H309.259z M454.684,483.724H57.316
		V268.893c37.586-6.697,66.209-39.619,66.209-79.102V28.276h50.954v57.74c0,22.032,8.65,42.675,24.356,58.123
		c15.708,15.45,36.534,23.739,58.563,23.396c44.189-0.744,80.138-37.814,80.138-82.636V28.276h50.94v161.515
		c0,21.473,8.361,41.648,23.533,56.803c11.781,11.795,26.588,19.474,42.678,22.313v214.817H454.684z"/>
	<path style="fill:#2E1C10;" d="M256,236.348c-30.24,0-54.842,24.602-54.842,54.842c0,30.24,24.602,54.842,54.842,54.842
		c2.312,0,4.585-0.161,6.823-0.44l-11.492,28.454c-2.924,7.24,0.574,15.48,7.814,18.405c1.736,0.701,3.527,1.032,5.291,1.032
		c5.593,0,10.889-3.342,13.113-8.846l28.22-69.871c0.254-0.629,0.443-1.267,0.601-1.907c2.871-6.651,4.472-13.976,4.472-21.668
		C310.842,260.95,286.239,236.348,256,236.348z M229.434,291.19c0-14.649,11.917-26.566,26.566-26.566
		c14.649,0,26.566,11.917,26.566,26.566c0,14.649-11.917,26.566-26.566,26.566C241.351,317.756,229.434,305.838,229.434,291.19z"/>
</g>
</svg>